<?xml version="1.0" encoding="utf-8"?>
<!-- Generator: Adobe Illustrator 26.5.0, SVG Export Plug-In . SVG Version: 6.00 Build 0)  -->
<svg version="1.1" id="Capa_1" xmlns="http://www.w3.org/2000/svg" xmlns:xlink="http://www.w3.org/1999/xlink" x="0px" y="0px"
	 viewBox="0 0 480.3 480.3" style="enable-background:new 0 0 480.3 480.3;" xml:space="preserve">
<style type="text/css">
	.st0{fill:#FFFFFF;}
</style>
<g>
	<path class="st0" d="M247.5,258.5h160.7c5.5,0,9.8-4.4,9.8-9.8c0-5.5-4.4-9.8-9.8-9.8H247.5c-4.6-22.8-24.8-40.1-49-40.1
		s-44.4,17.3-49,40.1H78.1c-5.5,0-9.8,4.4-9.8,9.8c0,5.5,4.4,9.8,9.8,9.8h71.5c4.6,22.8,24.8,40.1,49,40.1
		C222.7,298.5,242.9,281.3,247.5,258.5z M168.3,248.6c0-16.7,13.5-30.2,30.2-30.2s30.2,13.5,30.2,30.2s-13.5,30.2-30.2,30.2
		S168.3,265.3,168.3,248.6z"/>
	<path class="st0" d="M330,138h78.2c5.5,0,9.8-4.4,9.8-9.8c0-5.5-4.4-9.8-9.8-9.8H330c-4.6-22.8-24.8-40.1-49-40.1
		c-24.2,0-44.4,17.3-49,40.1h-154c-5.5,0-9.8,4.4-9.8,9.8c0,5.5,4.4,9.8,9.8,9.8h154.1c4.6,22.8,24.8,40.1,49,40.1
		S325.4,160.8,330,138z M250.8,128.2c0-16.7,13.5-30.2,30.2-30.2s30.2,13.5,30.2,30.2s-13.5,30.2-30.2,30.2S250.8,144.8,250.8,128.2
		z"/>
	<path class="st0" d="M330,378.1h78.2c5.5,0,9.8-4.4,9.8-9.8c0-5.5-4.4-9.8-9.8-9.8H330c-4.6-22.8-24.8-40.1-49-40.1
		c-24.2,0-44.4,17.3-49,40.1H78c-5.5,0-9.8,4.4-9.8,9.8c0,5.5,4.4,9.8,9.8,9.8h154.1c4.6,22.8,24.8,40.1,49,40.1
		S325.4,401,330,378.1z M250.8,368.3c0-16.7,13.5-30.2,30.2-30.2s30.2,13.5,30.2,30.2c0,16.7-13.5,30.2-30.2,30.2
		S250.8,385,250.8,368.3z"/>
</g>
</svg>
