<?xml version="1.0" encoding="UTF-8"?>
<svg id="Capa_1" data-name="Capa 1" xmlns="http://www.w3.org/2000/svg" viewBox="0 0 307.05 293.08">
  <defs>
    <style>
      .cls-1 {
        fill: #fff;
      }
    </style>
  </defs>
  <path class="cls-1" d="M305.53,229.03l-13.6-20.75c-2.81-4.29-8.56-5.49-12.85-2.68l-75.81,49.68c-4.29,2.81-5.49,8.56-2.68,12.85l13.6,20.75c2.81,4.29,8.56,5.49,12.85,2.68l75.81-49.68c4.29-2.81,5.49-8.56,2.68-12.85Z"/>
  <path class="cls-1" d="M216.15,228.59l24.82-16.26c10.02-6.56,16.88-16.64,19.32-28.36,2.36-11.34,.31-22.9-5.76-32.71-.63-1.04-35.48-54.2-37.27-56.93-4.59-7-13.99-8.96-20.99-4.37-4.56,2.99-6.96,8.01-6.83,13.09l-2.7-4.12c-4.59-7-13.99-8.96-20.99-4.37-4.56,2.99-6.96,8.01-6.83,13.09l-1.87-2.85c-4.59-7-13.99-8.96-20.99-4.37-4.56,2.99-6.96,8.01-6.83,13.09l-25.14-38.36c-4.59-7-13.99-8.96-20.99-4.37-7,4.59-8.96,13.99-4.37,20.99l62.51,95.4-26.17-8.91c-7.93-2.7-16.54,1.54-19.24,9.46-2.7,7.93,1.54,16.54,9.46,19.24l73.58,25.07c4.89,2.03,10.14,3.1,15.45,3.1,7.51,0,15.1-2.11,21.83-6.52Z"/>
  <path class="cls-1" d="M46.79,85.79h-.06c-5.52,.03-9.97,4.53-9.94,10.06l.08,14.78c-15.68-27.57-7.41-63.06,19.48-80.68,13.55-8.88,29.75-11.95,45.61-8.65,15.86,3.3,29.48,12.58,38.36,26.13,3.03,4.62,9.23,5.91,13.85,2.88,4.62-3.03,5.91-9.23,2.88-13.85C145.25,18.46,127.13,6.11,106.04,1.72c-21.09-4.39-42.63-.31-60.65,11.5C8.84,37.17-1.84,85.96,20.94,122.94l-11,.06C4.42,123.03-.03,127.54,0,133.06c.03,5.5,4.5,9.94,10,9.94h.06l37-.21c5.52-.03,9.97-4.53,9.94-10.06l-.21-37c-.03-5.5-4.5-9.94-10-9.94Z"/>
</svg>